<svg width="24" height="24" viewBox="0 0 24 24" fill="none" xmlns="http://www.w3.org/2000/svg">
<path d="M22 15V9C22 4 20 2 15 2H9C4 2 2 4 2 9V15C2 20 4 22 9 22H15C20 22 22 20 22 15Z" stroke="#333333" stroke-width="1.5" stroke-linecap="round" stroke-linejoin="round"/>
<path d="M8.4201 17.1107C9.28719 17.1107 9.99011 16.4078 9.99011 15.5407C9.99011 14.6736 9.28719 13.9707 8.4201 13.9707C7.55302 13.9707 6.8501 14.6736 6.8501 15.5407C6.8501 16.4078 7.55302 17.1107 8.4201 17.1107Z" stroke="#333333" stroke-width="1.5" stroke-linecap="round" stroke-linejoin="round"/>
<path d="M15.75 14.4907V8.3507C15.75 7.0407 14.93 6.86075 14.1 7.09075L10.96 7.95074C10.39 8.11074 10 8.56075 10 9.21075V10.3107V11.0507V15.5507" stroke="#333333" stroke-width="1.5" stroke-linecap="round" stroke-linejoin="round"/>
<path d="M14.1804 16.0599C15.0474 16.0599 15.7504 15.357 15.7504 14.4899C15.7504 13.6228 15.0474 12.9199 14.1804 12.9199C13.3133 12.9199 12.6104 13.6228 12.6104 14.4899C12.6104 15.357 13.3133 16.0599 14.1804 16.0599Z" stroke="#333333" stroke-width="1.5" stroke-linecap="round" stroke-linejoin="round"/>
<path d="M9.99023 11.0407L15.7502 9.4707" stroke="#333333" stroke-width="1.5" stroke-linecap="round" stroke-linejoin="round"/>
</svg>
